<svg xmlns="http://www.w3.org/2000/svg" xmlns:xlink="http://www.w3.org/1999/xlink" viewBox="0 0 75.41 74.1"><defs><style>.cls-1{fill:url(#Degradado_sin_nombre_2494);}.cls-2{fill:url(#Degradado_sin_nombre_2474);}.cls-3{fill:url(#Degradado_sin_nombre_2468);}</style><linearGradient id="Degradado_sin_nombre_2494" x1="-266.23" y1="2346.86" x2="-289.82" y2="2410.72" gradientTransform="matrix(-1.47, 0.95, -0.54, -0.84, 912.32, 2302.3)" gradientUnits="userSpaceOnUse"><stop offset="0" stop-color="#12a1ff"/><stop offset="0.09" stop-color="#1da6ff"/><stop offset="0.26" stop-color="#3ab3ff"/><stop offset="0.48" stop-color="#6ac9ff"/><stop offset="0.73" stop-color="#abe7ff"/><stop offset="0.74" stop-color="#ade8ff"/><stop offset="0.8" stop-color="#a2e2ff"/><stop offset="0.9" stop-color="#85d3ff"/><stop offset="1" stop-color="#5fbfff"/></linearGradient><linearGradient id="Degradado_sin_nombre_2474" x1="-276.15" y1="2373.67" x2="-301.95" y2="2383.39" gradientTransform="matrix(-1.47, 0.95, -0.54, -0.84, 912.32, 2302.3)" gradientUnits="userSpaceOnUse"><stop offset="0" stop-color="#12a1ff"/><stop offset="0.11" stop-color="#1da5ff"/><stop offset="0.29" stop-color="#3ab1ff"/><stop offset="0.48" stop-color="#5fbfff"/><stop offset="1" stop-color="#5fbfff"/></linearGradient><linearGradient id="Degradado_sin_nombre_2468" x1="-281.24" y1="2411.88" x2="-289.73" y2="2343.08" gradientTransform="matrix(-1.47, 0.95, -0.54, -0.84, 912.32, 2302.3)" gradientUnits="userSpaceOnUse"><stop offset="0" stop-color="#12a1ff"/><stop offset="0.24" stop-color="#0f96ff"/><stop offset="0.65" stop-color="#0879ff"/><stop offset="1" stop-color="#005cff"/></linearGradient></defs><title>circle-2</title><g id="Layer_2" data-name="Layer 2"><g id="OBJECTS"><path class="cls-1" d="M52.1,69.2l9-5.74a30.66,30.66,0,0,1-8.75,3.86,31.47,31.47,0,0,1-10.67.89A35.58,35.58,0,0,1,14.89,51.8,35.61,35.61,0,0,1,11,20.63a31.46,31.46,0,0,1,5.22-9.34A30.33,30.33,0,0,1,23.31,4.9l-9,5.74C-.76,20.37-4.53,41.37,5.9,57.54S37,78.93,52.1,69.2Z"/><path class="cls-2" d="M53.63,26.8A35.55,35.55,0,0,1,57.55,58l.16.24c12.37-8,15.47-25.22,6.9-38.49S39.08,2.16,26.7,10.15l.15.24A35.58,35.58,0,0,1,53.63,26.8Z"/><path class="cls-3" d="M41.67,68.21a31.47,31.47,0,0,0,10.67-.89,30.66,30.66,0,0,0,8.75-3.86c15.09-9.73,18.85-30.73,8.42-46.9S38.39-4.83,23.31,4.9a30.33,30.33,0,0,0-7.12,6.39A31.46,31.46,0,0,0,11,20.63,35.61,35.61,0,0,0,14.89,51.8,35.58,35.58,0,0,0,41.67,68.21ZM26.43,10.34l.42.05-.15-.24c12.38-8,29.35-3.7,37.91,9.57s5.47,30.5-6.9,38.49L57.55,58c0,.13-.08.27-.13.4a25.77,25.77,0,0,1-20.16,3A29.56,29.56,0,0,1,19.79,48.64a29.59,29.59,0,0,1-4.41-21.17A25.78,25.78,0,0,1,26.43,10.34Z"/></g></g></svg>