<svg id="Capa_1" enable-background="new 0 0 512 512" height="512" viewBox="0 0 512 512" width="512" xmlns="http://www.w3.org/2000/svg" xmlns:xlink="http://www.w3.org/1999/xlink"><linearGradient id="SVGID_1_" gradientUnits="userSpaceOnUse" x1="74.981" x2="437.019" y1="437.019" y2="74.981"><stop offset="0" stop-color="#364aff"/><stop offset="1" stop-color="#fc54ff"/></linearGradient><radialGradient id="SVGID_2_" cx="256" cy="256" gradientUnits="userSpaceOnUse" r="256"><stop offset=".095" stop-color="#8d00db" stop-opacity=".66"/><stop offset=".2822" stop-color="#9f0de1" stop-opacity=".523"/><stop offset=".6541" stop-color="#cc30f0" stop-opacity=".252"/><stop offset="1" stop-color="#fc54ff" stop-opacity="0"/></radialGradient><linearGradient id="SVGID_3_" gradientUnits="userSpaceOnUse" x1="-205.172" x2="434.065" y1="675.476" y2="36.239"><stop offset="0" stop-color="#b31de7"/><stop offset="1" stop-color="#fda0ff"/></linearGradient><linearGradient id="lg1"><stop offset="0" stop-color="#fda0ff"/><stop offset=".0153" stop-color="#fda3ff"/><stop offset=".1973" stop-color="#fec4ff"/><stop offset=".3847" stop-color="#fedeff"/><stop offset=".5772" stop-color="#fff0ff"/><stop offset=".7779" stop-color="#fffbff"/><stop offset="1" stop-color="#fff"/></linearGradient><linearGradient id="SVGID_4_" gradientUnits="userSpaceOnUse" x1="168.228" x2="392.199" xlink:href="#lg1" y1="527.366" y2="303.395"/><linearGradient id="lg2"><stop offset="0" stop-color="#fc54ff"/><stop offset="1" stop-color="#fff"/></linearGradient><linearGradient id="SVGID_5_" gradientUnits="userSpaceOnUse" x1="161.511" x2="438.052" xlink:href="#lg2" y1="408.856" y2="132.314"/><linearGradient id="lg3"><stop offset=".0056" stop-color="#fda0ff"/><stop offset=".1761" stop-color="#fda7ff"/><stop offset=".4301" stop-color="#febcff"/><stop offset=".7346" stop-color="#fedcff"/><stop offset="1" stop-color="#fff"/></linearGradient><linearGradient id="SVGID_6_" gradientUnits="userSpaceOnUse" x1="225.25" x2="277.124" xlink:href="#lg3" y1="86.305" y2="34.431"/><linearGradient id="SVGID_7_" gradientUnits="userSpaceOnUse" x1="229.192" x2="298.132" xlink:href="#lg1" y1="82.319" y2="13.379"/><linearGradient id="SVGID_8_" gradientUnits="userSpaceOnUse" x1="24.591" x2="75.814" xlink:href="#lg3" y1="286.685" y2="235.462"/><linearGradient id="SVGID_9_" gradientUnits="userSpaceOnUse" x1="28.275" x2="97.473" xlink:href="#lg1" y1="283.096" y2="213.898"/><linearGradient id="SVGID_10_" gradientUnits="userSpaceOnUse" x1="425.833" x2="477.753" xlink:href="#lg3" y1="286.828" y2="234.907"/><linearGradient id="SVGID_11_" gradientUnits="userSpaceOnUse" x1="429.819" x2="498.857" xlink:href="#lg1" y1="282.886" y2="213.847"/><linearGradient id="SVGID_12_" gradientUnits="userSpaceOnUse" x1="88.747" x2="528.67" xlink:href="#lg2" y1="467.992" y2="28.07"/><linearGradient id="SVGID_13_" gradientUnits="userSpaceOnUse" x1="83.463" x2="423.363" xlink:href="#lg2" y1="429.083" y2="89.182"/><linearGradient id="SVGID_14_" gradientUnits="userSpaceOnUse" x1="24.324" x2="369.634" xlink:href="#lg2" y1="384.418" y2="39.108"/><g><circle cx="256" cy="256" fill="url(#SVGID_1_)" r="256"/><circle cx="256" cy="256" fill="url(#SVGID_2_)" r="256"/><path d="m256 47.6c-111.753.473-208.291 96.663-208.582 208.435 5.125.008 10.25.015 15.375.022.217-103.96 89.249-192.706 193.207-193.082 103.958.376 192.99 89.122 193.207 193.082 5.125-.007 10.25-.014 15.375-.022-.29-111.772-96.829-207.962-208.582-208.435z" fill="url(#SVGID_3_)"/><path d="m158.091 440.542c-1.825 2.497-.931 6.155 1.874 7.642 29.13 15.431 61.648 24.287 96.035 24.279 34.387.008 66.905-8.848 96.036-24.279 2.805-1.486 3.699-5.144 1.874-7.642-7.285-9.971-14.629-19.979-22.021-30.016-25.109-15.043-50.432-30.314-75.888-45.689-25.456 15.375-50.779 30.646-75.888 45.689-7.393 10.037-14.737 20.045-22.022 30.016z" fill="url(#SVGID_4_)"/><path d="m135.129 263.189c14.754 48.922 29.904 98.078 44.983 147.337 50.592.582 101.185.582 151.777 0-64.476-48.344-130.762-98.332-196.76-147.337z" fill="url(#SVGID_5_)"/><path d="m225.949 32.318c-.099 15.368-.188 30.737-.266 46.105-.023 4.244 3.358 7.668 7.551 7.654 15.178-.052 30.355-.052 45.533 0-17.773-17.995-35.404-35.938-52.818-53.759z" fill="url(#SVGID_6_)"/><path d="m278.5 24.592c-15-.072-30-.072-45 0-4.141.02-7.522 3.483-7.551 7.726 8.096 25.341 27.692 45.203 52.817 53.759 4.192.014 7.573-3.41 7.551-7.654-.078-15.368-.167-30.737-.267-46.105-.028-4.244-3.409-7.706-7.55-7.726z" fill="url(#SVGID_7_)"/><path d="m24.377 233.5c-.053 15-.027 30 .08 45 .03 4.141 3.499 7.527 7.742 7.561 15.364.12 30.728.228 46.092.324-18.045-17.791-36.041-35.443-53.914-52.885z" fill="url(#SVGID_8_)"/><path d="m78.208 225.769c-15.371.057-30.742.122-46.113.194-4.244.021-7.704 3.396-7.719 7.537 8.382 24.738 28.475 44.36 53.914 52.885 4.243.028 7.659-3.349 7.638-7.54-.078-15.173-.098-30.345-.059-45.518.011-4.19-3.416-7.575-7.661-7.558z" fill="url(#SVGID_9_)"/><path d="m426.13 233.327c.039 15.173.02 30.345-.059 45.518-.021 4.191 3.396 7.567 7.638 7.54 15.364-.096 30.728-.203 46.092-.324-17.774-17.388-35.689-34.99-53.671-52.734z" fill="url(#SVGID_10_)"/><path d="m479.905 225.963c-15.371-.072-30.742-.137-46.113-.194-4.245-.017-7.672 3.368-7.661 7.558 8.536 25.106 28.358 44.673 53.671 52.734 4.242-.035 7.712-3.42 7.742-7.561.107-15 .133-30 .08-45-.015-4.141-3.475-7.516-7.719-7.537z" fill="url(#SVGID_11_)"/><path d="m279.584 275.908c-.447.536-.908 1.064-1.398 1.575-12.121 12.631-32.251 12.631-44.372 0-7.744-8.069-10.063-19.332-7.26-29.476-17.118-17.463-34.222-34.902-51.244-52.253-12.714 18.166-25.425 36.292-38.077 54.344-2.675 3.816-3.45 8.632-2.105 13.091 37.927 73.522 117.221 130.355 196.76 147.337 12.565-41.045 25.179-82.018 37.571-122.844-29.944-3.854-59.904-7.793-89.875-11.774z" fill="url(#SVGID_12_)"/><path d="m369.46 287.682c2.48-8.171 4.951-16.335 7.412-24.493 1.345-4.459.569-9.274-2.105-13.091-33.971-48.469-68.363-97.477-102.113-146.334-1.082-1.755-3.152-2.683-5.224-2.225-2.28.503-3.819 2.676-3.817 5.036.04 37.237.064 74.473.072 111.71 0 1.359.54 2.663 1.501 3.624 4.039 4.04 8.079 8.081 12.119 12.12 11.409 11.405 12.464 29.68 2.279 41.879 28.432 10.212 59.03 14.381 89.876 11.774z" fill="url(#SVGID_13_)"/><path d="m226.555 248.007c1.418-5.132 4.141-9.978 8.141-13.978 4.04-4.04 8.08-8.08 12.119-12.12.961-.961 1.501-2.265 1.501-3.624.008-37.237.032-74.474.072-111.71.002-2.36-1.537-4.533-3.818-5.036-2.072-.457-4.141.47-5.224 2.225-21.18 30.66-42.613 61.381-64.036 91.99 14.101 20.518 31.549 38.092 51.245 52.253z" fill="url(#SVGID_14_)"/></g></svg>