<svg xmlns="http://www.w3.org/2000/svg" viewBox="0 0 1378.23 218.25">
    <defs>
        <style>.cls-1{fill:#logo-text;}.logo-dot{fill:#1f57d8;}</style>
    </defs>
    <path id="logo-text" class="logo-text" d="M200.25,196.75a56,56,0,0,1-20.62,16,63.87,63.87,0,0,1-26.63,5.5,73.93,73.93,0,0,1-35.25-8.37q-15.75-8.38-36-29.63A98.29,98.29,0,0,1,39.38,165a85.75,85.75,0,0,1-29-31.62A89.36,89.36,0,0,1,0,90.5Q0,64.76,12.38,44.13A87.22,87.22,0,0,1,46.63,11.75Q68.5,0,95.75,0t49,11.75A88.44,88.44,0,0,1,179,44.13q12.5,20.62,12.5,46.37,0,30.51-17.12,53.5T129,176a44.58,44.58,0,0,0,12.13,9.38,28.38,28.38,0,0,0,12.62,2.87q16.25,0,28.5-13ZM48.13,119.5a51.09,51.09,0,0,0,19.62,19.88,55.5,55.5,0,0,0,28,7.12,55.56,55.56,0,0,0,28-7.12,51.18,51.18,0,0,0,19.63-19.88q7.13-12.75,7.12-29a58.43,58.43,0,0,0-7.12-29,51.15,51.15,0,0,0-19.63-19.87,55.56,55.56,0,0,0-28-7.13,55.51,55.51,0,0,0-28,7.13A51.06,51.06,0,0,0,48.13,61.5,58.44,58.44,0,0,0,41,90.5,58.41,58.41,0,0,0,48.13,119.5ZM321.5,56.38q16.74,14.87,16.75,44.87V178h-36.5V161.25q-11,18.75-41,18.75-15.51,0-26.88-5.25t-17.37-14.5a37.71,37.71,0,0,1-6-21q0-18.75,14.12-29.5T268.25,99h31q0-12.75-7.75-19.62T268.25,72.5a67.92,67.92,0,0,0-21.13,3.38A56,56,0,0,0,229.5,85l-14-27.25a84.71,84.71,0,0,1,26.37-12A118.28,118.28,0,0,1,273.5,41.5Q304.75,41.5,321.5,56.38Zm-33.25,92.75a25.39,25.39,0,0,0,11-13.63V121.75H272.5q-24,0-24,15.75a14.05,14.05,0,0,0,5.87,11.88q5.88,4.37,16.13,4.37A34,34,0,0,0,288.25,149.13ZM386,175.88q-16-4.12-25.5-10.38l13-28a81.71,81.71,0,0,0,21.75,9.38,91.38,91.38,0,0,0,25,3.62q24.75,0,24.75-12.25,0-5.75-6.75-8.25t-20.75-4.25A198.45,198.45,0,0,1,390.25,120a42.21,42.21,0,0,1-18.63-11.5q-7.87-8.25-7.87-23.5a36.77,36.77,0,0,1,7.37-22.62Q378.5,52.5,392.62,47T426,41.5a130.56,130.56,0,0,1,28.37,3.13q14.13,3.12,23.38,8.62L464.75,81A77.7,77.7,0,0,0,426,71q-12.51,0-18.75,3.5t-6.25,9q0,6.25,6.75,8.75T429.25,97a230,230,0,0,1,27,5.88,40.54,40.54,0,0,1,18.25,11.37q7.74,8.25,7.75,23a35.5,35.5,0,0,1-7.5,22.25q-7.5,9.75-21.88,15.13T418.75,180A130.59,130.59,0,0,1,386,175.88Zm251.24-54.13H535.49a31.7,31.7,0,0,0,13,19.75q10.26,7.26,25.5,7.25a51.75,51.75,0,0,0,18.63-3.12,45.21,45.21,0,0,0,15.12-9.88l20.75,22.5Q609.5,180,573,180q-22.74,0-40.25-8.87a65.17,65.17,0,0,1-27-24.63q-9.5-15.75-9.5-35.75a68.73,68.73,0,0,1,9.38-35.62,65.56,65.56,0,0,1,25.75-24.75A79.69,79.69,0,0,1,603.74,50a62.06,62.06,0,0,1,25.13,24.38Q638,90.25,638,111.25,638,112,637.24,121.75ZM546,78.5Q537,86,535,99h66.25q-2-12.75-11-20.37t-22-7.63Q555,71,546,78.5ZM876.37,56.38Q891.23,71.25,891.24,101v77h-39V107q0-16-6.62-23.87t-18.88-7.88Q813,75.25,805,84.13t-8,26.37V178H758V107q0-31.74-25.5-31.75-13.5,0-21.5,8.88t-8,26.37V178H664V43.5h37.25V59a49.32,49.32,0,0,1,18.38-13,61.81,61.81,0,0,1,23.87-4.5,57.84,57.84,0,0,1,25.75,5.63,45.64,45.64,0,0,1,18.5,16.37,55.23,55.23,0,0,1,20.88-16.25,65.86,65.86,0,0,1,27.62-5.75Q861.49,41.5,876.37,56.38Zm140.74,119q-19.36-5.62-31.12-14.63l13.75-30.5a93.13,93.13,0,0,0,26.75,13.25,100.23,100.23,0,0,0,31,5q17.25,0,25.5-5.12t8.25-13.63a13,13,0,0,0-4.88-10.37,37,37,0,0,0-12.5-6.63q-7.62-2.49-20.62-5.5a282.71,282.71,0,0,1-32.75-9.5A53.21,53.21,0,0,1,998.61,82.5q-9.12-10.5-9.12-28a48.71,48.71,0,0,1,8.25-27.62q8.25-12.37,24.87-19.63T1063.24,0A134.91,134.91,0,0,1,1096,4a96.92,96.92,0,0,1,28,11.5l-12.5,30.75Q1087.23,32.51,1063,32.5q-17,0-25.13,5.5t-8.12,14.5q0,9,9.37,13.38t28.63,8.62a287.36,287.36,0,0,1,32.75,9.5,54.26,54.26,0,0,1,21.87,15q9.14,10.26,9.13,27.75a47.76,47.76,0,0,1-8.38,27.38q-8.37,12.38-25.12,19.62T1057.24,181A143.2,143.2,0,0,1,1017.11,175.38Zm270.37-53.63H1185.73a31.7,31.7,0,0,0,13,19.75q10.26,7.26,25.5,7.25a51.75,51.75,0,0,0,18.63-3.12,45.21,45.21,0,0,0,15.12-9.88l20.75,22.5q-19,21.75-55.5,21.75-22.74,0-40.25-8.87a65.17,65.17,0,0,1-27-24.63q-9.49-15.75-9.5-35.75a68.73,68.73,0,0,1,9.38-35.62,65.56,65.56,0,0,1,25.75-24.75A79.69,79.69,0,0,1,1254,50a62.06,62.06,0,0,1,25.13,24.38q9.12,15.87,9.12,36.87Q1288.23,112,1287.48,121.75ZM1196.23,78.5q-9,7.5-11,20.5h66.25q-2-12.75-11-20.37t-22-7.63Q1205.24,71,1196.23,78.5Z"/>
    <path id="logo-dot" class="logo-dot" d="M1336.73,173a23.76,23.76,0,0,1-7-17.5q0-10.74,7-17.37a25.76,25.76,0,0,1,34.5,0q7,6.62,7,17.37a23.72,23.72,0,0,1-7,17.5,24.75,24.75,0,0,1-34.5,0Z"/>
</svg>