<svg id="Capa_1" enable-background="new 0 0 512 512" height="512" viewBox="0 0 512 512" width="512" xmlns="http://www.w3.org/2000/svg" xmlns:xlink="http://www.w3.org/1999/xlink"><linearGradient id="SVGID_1_" gradientUnits="userSpaceOnUse" x1="35.432" x2="486.571" y1="476.568" y2="25.429"><stop offset="0" stop-color="#560dff"/><stop offset="1" stop-color="#73ecff"/></linearGradient><radialGradient id="SVGID_2_" cx="257.014" cy="256" gradientUnits="userSpaceOnUse" r="256"><stop offset="0" stop-color="#663deb"/><stop offset=".12" stop-color="#6344ea" stop-opacity=".874"/><stop offset=".2989" stop-color="#5a59e8" stop-opacity=".687"/><stop offset=".5146" stop-color="#4b7ae4" stop-opacity=".46"/><stop offset=".7567" stop-color="#38a7e0" stop-opacity=".207"/><stop offset=".9537" stop-color="#25d2db" stop-opacity="0"/></radialGradient><linearGradient id="SVGID_3_" gradientUnits="userSpaceOnUse" x1="101.84" x2="408.903" y1="410.16" y2="103.097"><stop offset="0" stop-color="#3ca1ff"/><stop offset=".0788" stop-color="#3eaafc"/><stop offset=".5895" stop-color="#49e4ec"/><stop offset=".8352" stop-color="#4dfae6"/><stop offset=".8878" stop-color="#65fbe4"/><stop offset=".9985" stop-color="#a2ffe0"/><stop offset="1" stop-color="#a3ffe0"/></linearGradient><linearGradient id="SVGID_4_" gradientUnits="userSpaceOnUse" x1="157.625" x2="497.549" y1="480.702" y2="140.778"><stop offset="0" stop-color="#3ca1ff" stop-opacity=".6"/><stop offset=".1017" stop-color="#41a6fd" stop-opacity=".634"/><stop offset=".228" stop-color="#51b4f9" stop-opacity=".677"/><stop offset=".3671" stop-color="#6acbf1" stop-opacity=".723"/><stop offset=".5146" stop-color="#8debe7" stop-opacity=".773"/><stop offset=".595" stop-color="#a3ffe0" stop-opacity=".8"/><stop offset=".6803" stop-color="#b1ffe5" stop-opacity=".8"/><stop offset=".8402" stop-color="#d5fff1" stop-opacity=".8"/><stop offset="1" stop-color="#fff" stop-opacity=".8"/></linearGradient><linearGradient id="SVGID_5_" gradientUnits="userSpaceOnUse" x1="79.31" x2="361.74" y1="410.802" y2="128.372"><stop offset="0" stop-color="#a3ffe0"/><stop offset=".1753" stop-color="#aaffe2"/><stop offset=".4365" stop-color="#bfffe9"/><stop offset=".7495" stop-color="#dffff4"/><stop offset="1" stop-color="#fff"/></linearGradient><linearGradient id="SVGID_6_" gradientUnits="userSpaceOnUse" x1="168.394" x2="302.601" y1="343.618" y2="209.411"><stop offset="0" stop-color="#4dfae6"/><stop offset=".269" stop-color="#77fce3"/><stop offset=".5293" stop-color="#a3ffe0"/><stop offset=".6632" stop-color="#a6ffe1"/><stop offset=".7541" stop-color="#afffe4"/><stop offset=".8324" stop-color="#beffe9"/><stop offset=".9035" stop-color="#d4fff0"/><stop offset=".9691" stop-color="#effffa"/><stop offset="1" stop-color="#fff"/></linearGradient><linearGradient id="lg1"><stop offset="0" stop-color="#18ccc0"/><stop offset=".1621" stop-color="#1ecfc2"/><stop offset=".3713" stop-color="#2ed6c6"/><stop offset=".6064" stop-color="#48e3ce"/><stop offset=".8586" stop-color="#6df4d9"/><stop offset="1" stop-color="#85ffe0"/></linearGradient><linearGradient id="SVGID_7_" gradientUnits="userSpaceOnUse" x1="60.97" x2="190.346" xlink:href="#lg1" y1="386.769" y2="257.393"/><linearGradient id="lg2"><stop offset="0" stop-color="#3ca1ff"/><stop offset="1" stop-color="#a3ffe0" stop-opacity=".8"/></linearGradient><linearGradient id="SVGID_8_" gradientUnits="userSpaceOnUse" x1="114.919" x2="189.85" xlink:href="#lg2" y1="276.645" y2="201.714"/><linearGradient id="lg3"><stop offset=".0223" stop-color="#3ca1ff"/><stop offset=".2322" stop-color="#4db0fa"/><stop offset=".645" stop-color="#79d8ed"/><stop offset="1" stop-color="#a3ffe0"/></linearGradient><linearGradient id="SVGID_9_" gradientUnits="userSpaceOnUse" x1="118.339" x2="179.54" xlink:href="#lg3" y1="273.079" y2="211.878"/><linearGradient id="SVGID_10_" gradientUnits="userSpaceOnUse" x1="212.604" x2="287.462" xlink:href="#lg2" y1="276.446" y2="201.588"/><linearGradient id="SVGID_11_" gradientUnits="userSpaceOnUse" x1="216.074" x2="277.434" xlink:href="#lg3" y1="272.959" y2="211.598"/><linearGradient id="SVGID_12_" gradientUnits="userSpaceOnUse" x1="310.585" x2="384.86" xlink:href="#lg2" y1="276.265" y2="201.99"/><linearGradient id="SVGID_13_" gradientUnits="userSpaceOnUse" x1="314.01" x2="375.461" xlink:href="#lg3" y1="272.846" y2="211.395"/><linearGradient id="SVGID_14_" gradientUnits="userSpaceOnUse" x1="118.603" x2="398.269" y1="587.636" y2="307.971"><stop offset=".0056" stop-color="#18ccc0"/><stop offset=".073" stop-color="#1ecec1"/><stop offset=".1601" stop-color="#2ed4c5"/><stop offset=".258" stop-color="#48decb"/><stop offset=".3638" stop-color="#6debd4"/><stop offset=".4747" stop-color="#9cfdde"/><stop offset=".4888" stop-color="#a3ffe0"/></linearGradient><linearGradient id="lg4"><stop offset=".0056" stop-color="#18ccc0"/><stop offset=".1444" stop-color="#1ecec1"/><stop offset=".3236" stop-color="#2ed4c5"/><stop offset=".5251" stop-color="#48decb"/><stop offset=".7427" stop-color="#6debd4"/><stop offset=".971" stop-color="#9cfdde"/><stop offset="1" stop-color="#a3ffe0"/></linearGradient><linearGradient id="SVGID_15_" gradientUnits="userSpaceOnUse" x1="156.063" x2="430.213" xlink:href="#lg4" y1="464.285" y2="190.135"/><linearGradient id="SVGID_16_" gradientUnits="userSpaceOnUse" x1="109.44" x2="339.791" xlink:href="#lg4" y1="530.123" y2="299.772"/><linearGradient id="SVGID_17_" gradientUnits="userSpaceOnUse" x1="102.863" x2="283.945" xlink:href="#lg1" y1="414.827" y2="233.746"/><g><circle cx="256" cy="256" fill="url(#SVGID_1_)" r="256"/><circle cx="256" cy="256" fill="url(#SVGID_2_)" r="256"/><path d="m105 394.545c-16.462-.546-30.883-14.573-31.759-31.045-3.688-71.667-3.688-143.333 0-215 .876-16.473 15.297-30.5 31.759-31.045 100.667-3.19 201.333-3.19 302 0 16.462.545 30.883 14.575 31.759 31.045 3.688 71.667 3.688 143.333 0 215-.876 16.471-15.297 30.5-31.759 31.045-100.667 3.19-201.333 3.19-302 0z" fill="url(#SVGID_3_)"/><path d="m407 117.455c-20-.634-40-1.141-60-1.523 16.463.33 30.58 14.373 31.176 31.082 2.465 72.657 2.465 145.315 0 217.973-.596 16.708-14.713 30.752-31.176 31.082 20-.382 40-.89 60-1.523 16.462-.546 30.883-14.573 31.759-31.045 3.688-71.667 3.688-143.333 0-215-.876-16.474-15.297-30.501-31.759-31.046z" fill="url(#SVGID_4_)"/><path d="m132.03 261.764c-10.327-38.257-19.987-76.305-28.474-114.069.014.009 76.239-2.011 152.46-1.84 76.222-.179 152.439 1.833 152.439 1.827 1.674.006 3.232 171.296 1.527 171.295-.233.167-154.258 32.166-153.983 31.841-40.868-29.663-82.593-59.671-123.969-89.054z" fill="url(#SVGID_5_)"/><path d="m103.545 147.683c-1.62 38.016-2.386 76.031-2.301 114.046 49.019 34.259 98.654 69.608 146.943 104.454 53.431.067 106.862-.555 160.293-1.866-111.099-46.978-223.246-128.14-304.935-216.634z" fill="url(#SVGID_6_)"/><path d="m212.53 319.975c-29.945-29.455-68.456-50.227-111.286-58.246.043 19.084.301 38.168.774 57.252 18.109 10.326 36.191 20.73 54.184 31.147 18.622-9.918 37.42-19.992 56.328-30.153z" fill="url(#SVGID_7_)"/><path d="m183.95 274.213c-17.304-.032-34.608-.076-51.912-.132-8.486-.032-15.416-6.848-15.424-15.216-.017-17.073.119-34.146.41-51.219.145-8.368 7.152-15.248 15.595-15.348 17.223-.196 34.446-.35 51.669-.465 8.444-.058 15.229 6.777 15.175 15.25-.118 17.272-.174 34.544-.167 51.815.003 8.476-6.859 15.333-15.346 15.315z" fill="url(#SVGID_8_)"/><path d="m117.024 207.647c-.291 17.073-.427 34.146-.41 51.219.008 8.37 6.938 15.183 15.424 15.216 17.304.056 34.608.1 51.912.132-30.96-11.939-55.576-36.189-66.926-66.567z" fill="url(#SVGID_9_)"/><path d="m281.968 274.272c-17.304.012-34.608.012-51.912 0-8.486-.006-15.382-6.891-15.385-15.37-.005-17.29.035-34.581.122-51.871.045-8.478 6.941-15.382 15.385-15.404 17.223-.042 34.446-.042 51.669 0 8.444.021 15.34 6.924 15.385 15.404.086 17.29.127 34.581.122 51.871-.003 8.479-6.899 15.364-15.386 15.37z" fill="url(#SVGID_10_)"/><path d="m214.792 207.031c-.086 17.29-.127 34.581-.122 51.871.003 8.479 6.899 15.364 15.385 15.37 17.304.012 34.608.012 51.912 0-30.908-11.881-55.458-36.375-67.175-67.241z" fill="url(#SVGID_11_)"/><path d="m379.986 274.081c-17.304.056-34.608.1-51.912.132-8.487.019-15.349-6.84-15.346-15.314.007-17.272-.049-34.544-.167-51.815-.054-8.474 6.731-15.306 15.175-15.249 17.223.114 34.446.269 51.669.465 8.443.1 15.45 6.976 15.595 15.348.291 17.073.427 34.146.41 51.219-.008 8.368-6.937 15.181-15.424 15.214z" fill="url(#SVGID_12_)"/><path d="m312.561 207.083c.118 17.272.174 34.544.167 51.815-.002 8.475 6.859 15.332 15.346 15.314 17.304-.032 34.608-.076 51.912-.132-30.857-11.662-55.341-36.066-67.425-66.997z" fill="url(#SVGID_13_)"/><path d="m409.983 318.978c0-.008-39.486.607-90.18.902 29.163 16.907 58.832 31.87 88.677 44.437.13-.291 1.59-45.337 1.503-45.339z" fill="url(#SVGID_14_)"/><path d="m103.581 364.318c0-.002 76.221 2.015 152.444 1.84 76.223.174 152.447-1.843 152.454-1.839-101.632 2.492-203.265 2.492-304.898-.001z" fill="url(#SVGID_15_)"/><path d="m319.802 319.88c-33.582.203-72.081.249-107.279.102-18.905 10.159-37.702 20.231-56.322 30.147 30.772 5.508 61.443 10.891 91.986 16.054 53.431.067 106.862-.555 160.293-1.866-29.845-12.567-59.515-27.531-88.678-44.437z" fill="url(#SVGID_16_)"/><path d="m212.523 319.982c-60.046-.225-110.482-1.006-110.494-1 .383 15.112.9 30.225 1.552 45.336 48.202 1.182 96.404 1.804 144.606 1.865-9.705-16.979-21.75-32.515-35.664-46.201z" fill="url(#SVGID_17_)"/></g></svg>